<svg width="32" height="26" viewBox="0 0 32 26" fill="none" xmlns="http://www.w3.org/2000/svg">
<path d="M27.0894 2.82669C25.0148 1.87447 22.8254 1.19547 20.576 0.80669C20.5555 0.802694 20.5343 0.805318 20.5153 0.814185C20.4964 0.823052 20.4808 0.837702 20.4707 0.856023C20.1907 1.35602 19.8787 2.00802 19.66 2.52269C17.2353 2.1544 14.7688 2.1544 12.344 2.52269C12.1007 1.95243 11.826 1.39602 11.5214 0.856023C11.5109 0.838112 11.4952 0.823809 11.4764 0.815001C11.4576 0.806194 11.4365 0.803296 11.416 0.80669C9.16649 1.19466 6.977 1.8737 4.9027 2.82669C4.88514 2.83406 4.87025 2.84662 4.86003 2.86269C0.710697 9.06136 -0.426636 15.1067 0.13203 21.076C0.133388 21.0908 0.137753 21.1052 0.14486 21.1183C0.151967 21.1314 0.161666 21.1428 0.173364 21.152C2.58882 22.9416 5.29084 24.3077 8.16403 25.192C8.18428 25.1979 8.20584 25.1975 8.22584 25.1908C8.24584 25.1841 8.26335 25.1715 8.27603 25.1547C8.89203 24.3147 9.44136 23.428 9.9107 22.496C9.91725 22.4833 9.92104 22.4693 9.9218 22.455C9.92256 22.4407 9.92028 22.4264 9.91512 22.4131C9.90995 22.3997 9.90202 22.3876 9.89183 22.3775C9.88165 22.3675 9.86945 22.3597 9.85603 22.3547C8.99393 22.0248 8.15932 21.6271 7.36003 21.1654C7.34538 21.1569 7.33305 21.1449 7.32414 21.1305C7.31523 21.1161 7.31001 21.0998 7.30896 21.0829C7.3079 21.066 7.31104 21.0491 7.31809 21.0337C7.32514 21.0183 7.33588 21.0049 7.34936 20.9947C7.51768 20.8688 7.68306 20.739 7.84536 20.6054C7.85956 20.5938 7.87668 20.5865 7.89481 20.5841C7.91294 20.5818 7.93136 20.5845 7.94803 20.592C13.1854 22.9827 18.8547 22.9827 24.0307 20.592C24.0475 20.5842 24.0662 20.5814 24.0846 20.5837C24.103 20.5861 24.1204 20.5936 24.1347 20.6054C24.2947 20.736 24.4627 20.8694 24.632 20.9947C24.6454 21.0048 24.656 21.0179 24.6631 21.033C24.6702 21.0482 24.6735 21.0648 24.6727 21.0815C24.6719 21.0982 24.6671 21.1144 24.6586 21.1288C24.6501 21.1432 24.6383 21.1553 24.624 21.164C23.8266 21.6301 22.9912 22.028 22.1267 22.3534C22.1132 22.3585 22.101 22.3664 22.0908 22.3766C22.0806 22.3868 22.0727 22.399 22.0675 22.4125C22.0624 22.426 22.0601 22.4403 22.0609 22.4547C22.0617 22.4691 22.0655 22.4832 22.072 22.496C22.552 23.4267 23.1014 24.312 23.7054 25.1534C23.7178 25.1705 23.7353 25.1833 23.7554 25.19C23.7755 25.1967 23.7971 25.1969 23.8174 25.1907C26.6953 24.3091 29.4018 22.9429 31.82 21.1507C31.8318 21.1424 31.8417 21.1316 31.849 21.1192C31.8564 21.1068 31.861 21.093 31.8627 21.0787C32.5294 14.176 30.7454 8.18002 27.1307 2.86536C27.1223 2.84743 27.1076 2.83321 27.0894 2.82536V2.82669ZM10.6934 17.44C9.11603 17.44 7.81736 15.9934 7.81736 14.2147C7.81736 12.4374 9.09203 10.9894 10.6934 10.9894C12.3067 10.9894 13.5947 12.4507 13.5694 14.216C13.5694 15.9934 12.2947 17.44 10.6934 17.44ZM21.3267 17.44C19.7494 17.44 18.4507 15.9934 18.4507 14.2147C18.4507 12.4374 19.724 10.9894 21.3267 10.9894C22.94 10.9894 24.228 12.4507 24.2027 14.216C24.2027 15.9934 22.9414 17.44 21.3267 17.44Z" fill="#FF9900"/>
</svg>
